<svg width="1024" height="1024" viewBox="0 0 1024 1024" xmlns="http://www.w3.org/2000/svg">
  <defs>
    <linearGradient id="background" x1="0" y1="0" x2="1" y2="1">
      <stop offset="0" stop-color="#282C34"/>
      <stop offset="1" stop-color="#15171B"/>
    </linearGradient>
  </defs>
  <rect width="1024" height="1024" rx="225" fill="url(#background)"/>
  <path d="M515.4098360655737 772.0H465.3989071038251Q468.24043715846994 750.4043715846994 469.6612021857923 728.24043715847Q471.0819672131147 706.0765027322404 471.0819672131147 683.9125683060108V579.344262295082Q471.0819672131147 562.8633879781421 470.51366120218574 551.7814207650273Q469.9453551912568 540.6994535519125 468.24043715846994 529.9016393442623Q477.3333333333333 531.0382513661202 486.7103825136612 531.8907103825136Q496.08743169398906 532.7431693989071 510.2950819672131 533.311475409836Q524.5027322404371 533.879781420765 544.9617486338798 534.1639344262294Q565.4207650273224 534.4480874316939 596.6775956284152 534.4480874316939Q627.9344262295082 534.4480874316939 648.9617486338798 534.1639344262294Q669.9890710382513 533.879781420765 684.1967213114754 533.311475409836Q698.4043715846994 532.7431693989071 707.7814207650273 531.8907103825136Q717.1584699453551 531.0382513661202 725.1147540983607 529.9016393442623Q723.9781420765028 534.4480874316939 723.6939890710382 538.4262295081967Q723.4098360655737 542.4043715846994 722.8415300546447 547.8032786885246Q722.2732240437158 553.2021857923497 722.2732240437158 560.5901639344262Q722.2732240437158 567.9781420765026 722.2732240437158 579.344262295082V668.568306010929Q722.2732240437158 691.3005464480874 723.6939890710382 716.0218579234972Q725.1147540983607 740.7431693989071 727.9562841530054 761.2021857923497H676.2404371584698V715.1693989071038H515.4098360655737ZM676.2404371584698 573.0928961748633H515.4098360655737V674.8196721311475H676.2404371584698ZM331.27868852459017 416.2404371584699Q288.08743169398906 416.8087431693989 262.5136612021858 421.35519125683055V371.9125683060109Q275.5846994535519 374.18579234972674 292.6338797814208 375.0382513661202Q309.6830601092896 375.89071038251365 331.27868852459017 376.4590163934426Q331.27868852459017 348.6120218579235 330.7103825136612 329.2896174863388Q330.1420765027322 309.9672131147541 329.2896174863388 296.89617486338796Q328.43715846994536 283.8251366120218 327.3005464480874 275.0163934426229Q326.1639344262295 266.20765027322403 325.0273224043716 259.95628415300547Q340.37158469945354 262.7978142076503 352.5901639344262 263.9344262295082Q364.8087431693989 265.0710382513661 376.74316939890707 263.9344262295082Q389.24590163934425 262.7978142076503 391.5191256830601 267.06010928961746Q393.7923497267759 271.3224043715847 385.26775956284155 278.1420765027322Q379.0163934426229 282.6885245901639 376.4590163934426 286.95081967213116Q373.90163934426226 291.21311475409834 373.90163934426226 298.60109289617486V376.4590163934426Q394.36065573770486 375.89071038251365 410.84153005464475 375.0382513661202Q427.32240437158464 374.18579234972674 439.8251366120218 371.9125683060109V421.35519125683055Q413.6830601092896 416.8087431693989 373.90163934426226 416.8087431693989V506.6010928961748Q387.54098360655735 500.34972677595624 400.89617486338796 493.8142076502732Q414.25136612021856 487.27868852459017 427.89071038251365 480.4590163934426Q426.7540983606557 495.2349726775956 428.4590163934426 505.4644808743169Q430.1639344262295 515.6939890710382 434.7103825136612 524.7868852459017Q416.52459016393436 533.879781420765 401.4644808743169 540.983606557377Q386.40437158469945 548.0874316939891 373.90163934426226 554.3387978142076V713.4644808743169Q373.90163934426226 730.5136612021857 371.6284153005464 740.4590163934427Q369.3551912568306 750.4043715846994 361.11475409836066 756.0874316939891Q352.8743169398907 761.7704918032787 336.9617486338798 764.896174863388Q321.04918032786884 768.0218579234972 294.3387978142076 771.4316939890709Q292.6338797814208 756.655737704918 288.08743169398906 744.4371584699453Q283.54098360655735 732.2185792349726 272.1748633879781 715.7377049180327Q291.4972677595628 717.4426229508197 303.43169398907105 717.4426229508197Q315.3661202185792 717.4426229508197 321.3333333333333 714.6010928961748Q327.3005464480874 711.75956284153 329.2896174863388 706.6448087431694Q331.27868852459017 701.5300546448087 331.27868852459017 693.0054644808743V575.9344262295082Q313.6612021857923 585.5956284153006 302.57923497267757 592.4153005464481Q291.4972677595628 599.2349726775956 278.4262295081967 608.896174863388Q277.2896174863388 603.2131147540983 275.0163934426229 594.9726775956284Q272.74316939890707 586.7322404371585 269.90163934426226 578.2076502732241Q267.06010928961746 569.6830601092896 263.9344262295082 561.4426229508197Q260.8087431693989 553.2021857923497 257.39890710382514 546.950819672131Q277.85792349726773 541.2677595628415 296.04371584699453 535.5846994535519Q314.2295081967213 529.9016393442623 331.27868852459017 523.6502732240436ZM706.9289617486338 458.2950819672131Q642.7103825136612 462.84153005464475 600.3715846994535 466.535519125683Q558.0327868852459 470.22950819672127 530.7540983606557 473.92349726775956Q503.4754098360655 477.6174863387978 487.8469945355191 481.5956284153005Q472.21857923497265 485.5737704918032 461.4207650273224 489.55191256830597Q459.71584699453547 477.04918032786884 455.4535519125683 464.2622950819672Q451.1912568306011 451.4754098360655 444.9398907103825 440.1092896174863Q455.73770491803276 435.5628415300546 467.10382513661204 424.7650273224043Q478.46994535519127 413.9672131147541 486.4262295081967 402.6010928961748Q514.2732240437158 365.09289617486337 531.6065573770492 329.0054644808743Q548.9398907103825 292.91803278688525 561.4426229508197 252.0Q597.8142076502731 268.4808743169399 619.4098360655737 273.5956284153005Q630.7759562841529 276.43715846994536 630.4918032786885 280.6994535519126Q630.2076502732241 284.9617486338798 618.8415300546447 288.37158469945354Q614.295081967213 289.50819672131144 607.4754098360655 298.03278688524586Q600.655737704918 306.5573770491803 588.7213114754097 327.0163934426229Q582.4699453551912 337.24590163934425 573.3770491803278 351.1693989071038Q564.2841530054645 365.09289617486337 553.4863387978143 379.86885245901635Q542.688524590164 394.6448087431694 531.6065573770492 408.56830601092895Q520.5245901639344 422.4918032786885 510.86338797814204 433.2896174863388L688.1748633879781 425.90163934426226Q676.8087431693989 407.71584699453547 664.0218579234972 390.9508196721311Q651.2349726775956 374.18579234972674 638.7322404371585 361.1147540983606L672.8306010928961 335.54098360655735Q686.4699453551912 350.31693989071033 699.8251366120218 366.7978142076502Q713.1803278688524 383.2786885245901 725.3989071038251 400.0437158469945Q737.6174863387978 416.8087431693989 748.1311475409836 433.00546448087425Q758.6448087431694 449.20218579234967 766.6010928961748 462.84153005464475L721.7049180327868 488.983606557377Q718.8633879781421 482.1639344262295 715.1693989071039 474.20765027322403Q711.4754098360655 466.25136612021856 706.9289617486338 458.2950819672131Z" transform="translate(-4 -8) translate(512 512) scale(1.08) translate(-512 -512)" fill="#F7F9FC" stroke="#F7F9FC" stroke-width="8" stroke-linejoin="round"/>
</svg>
